<?xml version="1.0" encoding="UTF-8"?><svg xmlns="http://www.w3.org/2000/svg" viewBox="0 0 72 71.94"><defs><style>.d{fill:#fff;}</style></defs><g id="a"/><g id="b"><g id="c"><path class="d" d="M54.49,12.83c0-1.22,.02-2.28,0-3.33-.02-.87,.26-1.56,.88-2.17,2.24-2.21,4.46-4.43,6.67-6.67,.62-.63,1.32-.83,2.12-.53,.76,.29,1.01,.97,1.05,1.73,.04,.75,.05,1.49,.07,2.24,0,.18-.01,.41,.19,.49,.2,.08,.34-.1,.47-.22,.51-.5,1.02-1.01,1.54-1.5,.57-.54,1.2-.73,1.8-.09,.59,.62,.4,1.27-.13,1.82-.49,.52-1.03,.99-1.54,1.5-.38,.38-.26,.6,.25,.62,.78,.03,1.56,.03,2.33,.08,.76,.05,1.43,.32,1.7,1.1,.27,.76,.09,1.44-.51,2.04-2.26,2.23-4.5,4.48-6.74,6.73-.59,.59-1.26,.88-2.09,.84-.87-.04-1.74-.05-2.61-.06-.2,0-.48-.1-.59,.14-.11,.23,.13,.39,.26,.56,1.59,2.05,2.97,4.23,4.02,6.6,2.47,5.57,3.52,11.35,2.82,17.46-.75,6.59-3.15,12.46-7.36,17.56-5.05,6.13-11.5,9.97-19.31,11.55-3.71,.75-7.44,.8-11.14,.29-5.94-.82-11.3-3.12-16-6.9-.6-.48-.89-1.06-.41-1.79,.4-.61,1.12-.67,1.89-.09,2.25,1.69,4.61,3.17,7.22,4.25,5.14,2.13,10.44,2.91,15.98,2.17,7.4-.98,13.6-4.24,18.68-9.65,4.06-4.33,6.6-9.45,7.71-15.29,.81-4.22,.71-8.42-.24-12.59-1.12-4.94-3.36-9.34-6.64-13.22-.58-.68-1.01-.73-1.63-.04-1.01,1.1-2.08,2.14-3.16,3.18-.43,.41-.44,.72-.05,1.17,3.11,3.65,4.93,7.88,5.66,12.6,.15,.96,.11,1.92,.13,2.89,.01,.75-.3,1.31-1.1,1.36-.81,.05-1.16-.5-1.27-1.22-.19-1.2-.1-2.42-.32-3.62-.71-3.85-2.31-7.27-4.78-10.3-.39-.47-.69-.49-1.12-.04-1.05,1.1-2.13,2.18-3.24,3.23-.54,.51-.57,.9-.11,1.5,2.7,3.6,3.63,7.64,2.96,12.07-.92,6.05-6.06,11.35-12.02,12.63-8.1,1.74-15.92-2.95-18.35-10.57-2.43-7.62,1.28-15.9,8.69-19.05,5.44-2.31,10.65-1.68,15.47,1.73,.79,.56,1.24,.52,1.87-.16,.96-1.06,1.99-2.06,3.03-3.04,.51-.48,.43-.78-.06-1.19-3.32-2.69-7.07-4.44-11.33-4.88-5.15-.53-10.05,.33-14.47,3.21-5.2,3.39-8.6,8.06-9.83,14.17-1.58,7.86,.56,14.72,6.22,20.32,4.69,4.64,10.49,6.77,17.1,6.1,9.67-.98,16.02-6.31,19.33-15.37,.21-.58,.29-1.21,.47-1.81,.28-.94,.81-1.32,1.52-1.15,.69,.17,1.01,.78,.81,1.72-.85,3.87-2.55,7.33-5.11,10.36-3.85,4.54-8.71,7.34-14.56,8.42-11.23,2.08-22.58-4.26-26.74-14.62-3.77-9.4-2.32-18.12,4.33-25.75,5.5-6.32,12.68-8.82,20.93-8.05,4.85,.45,9.19,2.4,12.92,5.57,.64,.55,1.01,.46,1.53-.1,.95-1.03,1.97-1.99,2.96-2.98,.8-.81,.82-.9-.08-1.67-2.85-2.42-6.04-4.28-9.56-5.54-3.73-1.34-7.58-1.98-11.54-1.81-6.97,.29-13.19,2.59-18.59,7.05-4.86,4.02-8.23,9.05-10.02,15.1-1.74,5.91-1.7,11.84,.1,17.75,1.31,4.33,3.52,8.15,6.49,11.54,.62,.71,.63,1.39,.08,1.9-.57,.52-1.16,.46-1.85-.3-2.87-3.14-4.98-6.75-6.47-10.73C.05,44.72-.5,39.13,.46,33.55,2.52,21.54,9.21,12.93,20.4,8c6.08-2.69,12.47-3.33,19-2.11,5.32,.99,10.13,3.16,14.42,6.48,.17,.13,.35,.25,.66,.47m-21.17,38.99c4.31,0,8.05-1.83,10.57-5.17,3.51-4.67,3.59-10.9,.24-15.69-.47-.68-.78-.69-1.33-.1-.97,1.05-1.98,2.07-3.03,3.04-.61,.56-.66,1.02-.31,1.78,1.18,2.53,.97,5.01-.77,7.19-1.73,2.17-4.08,3.06-6.82,2.43-2.76-.64-4.54-2.43-5.17-5.19-.62-2.7,.25-5.02,2.37-6.76,2.14-1.74,4.6-2.01,7.1-.88,.91,.41,1.44,.32,2.08-.39,.93-1.04,1.94-2.02,2.96-2.98,.55-.51,.45-.81-.12-1.2-3.05-2.03-6.32-3.01-9.99-2.28-5.59,1.11-9.31,4.43-10.59,9.92-2.17,9.3,5.13,16.49,12.81,16.27m4.41-13.38c0-.09,0-.34-.04-.58-.06-.4-.09-.87-.53-1.01-.38-.12-.58,.28-.82,.51-.69,.67-1.37,1.36-2.05,2.04-.55,.54-1.13,.63-1.73,.09-.56-.51-.54-1.15,.07-1.79,.69-.72,1.4-1.41,2.1-2.12,.21-.22,.54-.41,.42-.77-.11-.32-.47-.39-.77-.46-2.47-.59-4.98,1.1-5.38,3.63-.41,2.56,1.44,4.88,4.03,5.06,2.58,.18,4.71-1.82,4.7-4.59M62.82,3.23c-1.49,1.51-2.69,2.92-4.08,4.09-1.56,1.31-2.31,2.77-1.73,4.78,.02,.06,0,.12,.01,.19,.03,.21-.05,.48,.17,.59,.26,.13,.38-.15,.52-.29,1.65-1.64,3.3-3.29,4.95-4.94,.22-.22,.45-.45,.42-.79-.08-1.1-.16-2.21-.26-3.62m5.84,5.93c-1.15-.08-2.07-.12-2.99-.22-.57-.07-1,.06-1.42,.48-1.45,1.49-2.94,2.95-4.41,4.43-.28,.28-.82,.54-.72,.9,.12,.43,.71,.21,1.09,.26,.61,.08,1.24,.11,1.86,.14,.31,.02,.64,0,.87-.24,1.86-1.87,3.72-3.74,5.72-5.75"/></g></g></svg>