<?xml version="1.0" encoding="UTF-8"?><svg xmlns="http://www.w3.org/2000/svg" viewBox="0 0 72 71.94"><defs><style>.d{fill:#fff;}</style></defs><g id="a"/><g id="b"><g id="c"><g><path class="d" d="M23.49,28.4c-.85,.91-1.69,1.82-2.54,2.72-.6,.63-1.19,1.27-1.99,1.68-.25,.13-.46,.32-.51,.63-.14,.9-.56,1.64-1.25,2.23-.36,.31-.24,.57,.05,.85,.41,.39,.8,.78,1.19,1.19,1.07,1.13,1.08,2.53-.03,3.65-.74,.74-1.4,1.54-2.49,1.89-.59,.19-1.02,.88-1.51,1.36-.65,.63-1.26,1.3-1.93,1.9-1.03,.94-2.4,1.02-3.38,.06-2.85-2.78-5.67-5.6-8.45-8.46-.92-.95-.82-2.42,.08-3.39,.49-.52,1.02-1.01,1.51-1.53,.78-.83,1.62-1.56,2.09-2.69,.38-.92,1.28-1.61,2.13-2.18,.91-.6,2.15-.39,3.01,.42,.5,.47,.91,1.14,1.5,1.38,.75,.3,.99-.8,1.64-.97,.72-.2,1.11-.7,1.38-1.38,.22-.55,.64-.98,1.07-1.4,4.04-4.02,8.08-8.05,12.13-12.06,.47-.47,.46-.87,0-1.26-2.87-2.43-2.9-5.63-2.37-8.92C25.2,1.82,27.41,.05,29.75,.02c2.46-.03,4.92,0,7.38-.02,.89-.01,1.23,.38,1.2,1.24-.05,1.45-.63,2.66-1.64,3.66-.49,.48-.69,.99-.66,1.66,.04,1.12-.02,2.24,.02,3.36,.04,1.26-.2,2.42-1.03,3.4-.29,.34-.3,.64,0,.99,.78,.89,1.55,1.79,2.28,2.72,.37,.47,.79,.64,1.36,.63,2.49-.01,4.98-.03,7.48,.01,1.59,.03,2.94,.57,3.72,2.07,1.28,2.44-.47,5.38-3.25,5.41-3.15,.04-6.29,.04-9.44,0-.85-.01-1.13,.25-1.13,1.12q0,3.61,2.25,6.82c.94,1.35,2,2.63,2.4,4.29,.12,.49,.22,.97,.22,1.47,0,3.36,0,6.73,0,10.09,0,1.29-.48,2.39-1.54,3.15-.56,.4-.71,.86-.7,1.5,.01,5.58,.01,11.15,0,16.73,0,1.49-.11,1.6-1.58,1.6-2.27,0-4.55,0-6.82,0-1.08,0-1.36-.26-1.36-1.31-.01-6.04-.01-12.09,0-18.13,0-1.04,.37-1.38,1.43-1.4,.84-.02,1.68,0,2.52-.01,.33,0,.67-.05,.53-.52-.47-1.65-.19-3.35-.24-5.02-.05-1.68-.03-3.36,0-5.05,.01-.65-.18-1.09-.74-1.48-2.06-1.45-4.1-2.94-6.12-4.45-.59-.44-.81-.34-.99,.35-1.65,6.1-3.32,12.2-4.99,18.29-.18,.67-.34,1.36,.01,2,.41,.78,1.06,1.2,1.98,1.11,1.01-.09,1.57-.71,1.83-1.62,.42-1.47,.8-2.94,1.21-4.41,.36-1.29,.73-2.57,1.09-3.86,.17-.6,.46-1.08,1.17-.91,.75,.17,.73,.8,.57,1.36-.8,2.94-1.61,5.88-2.46,8.81-.13,.46-.4,.97-.76,1.26-.68,.55-.74,1.21-.74,1.99,.02,3.65,.01,7.29,0,10.93,0,2-.08,2.08-2.02,2.08-2.15,0-4.3,0-6.45,0-1.03,0-1.29-.24-1.3-1.26-.01-4.33-.01-8.66,0-12.99,0-1,.35-1.31,1.38-1.34,.72-.02,1.43-.02,2.15,0,.48,0,.75-.13,.52-.65-.41-.94-.28-1.85,0-2.82,1.87-6.78,3.71-13.56,5.56-20.35,.04-.15,.12-.32,.08-.45-.36-1.13-.37-2.3-.29-3.49-.12-.06-.24-.11-.37-.17m6.45,.79c1.15,0,2.3-.02,3.46,0,.64,.01,.9-.24,.89-.88-.02-1.15-.01-2.3,0-3.45,0-1.2,.34-1.56,1.55-1.58,1.65-.03,3.3,0,4.95-.01,1.55,0,1.57,0,1.55-1.51-.03-2.53,.35-2.27-2.15-2.17-2.07,.09-3.89-.07-4.96-2.17-.27-.53-.57-.42-.8,.14-.55,1.34-1.15,1.7-2.58,1.66-1.52-.05-2.67-.77-3.51-1.99-.61-.88-.58-.9-1.36-.12-2.05,2.04-4.09,4.09-6.14,6.14q-2.15,2.15,.12,4.19c.41,.37,.7,.41,1.09,0,.75-.79,1.54-1.55,2.31-2.31,.37-.37,.79-.65,1.33-.37,.54,.29,.51,.8,.44,1.31-.1,.71-.16,1.42-.29,2.13-.13,.72,.06,1.05,.85,1.03,1.09-.04,2.18-.01,3.27-.01m9.07,14.72c0-1.59-.02-3.17,0-4.76,.02-1.1-.28-2.09-.89-2.99-1.04-1.54-2.09-3.09-3.13-4.64-.2-.3-.42-.52-.81-.52-2.55,0-5.1,0-7.65,0-.53,0-.65,.29-.4,.74,.27,.5,.65,.9,1.11,1.24,2.19,1.59,4.36,3.2,6.58,4.76,.79,.55,1.16,1.17,1.14,2.16-.05,2.99-.03,5.97-.01,8.96,0,1.25,.93,2.21,2.05,2.22,1.17,0,1.98-.88,2-2.22,.02-1.65,0-3.3,0-4.95m-8.2,17.59c0,2.55,.02,5.11-.01,7.66-.01,.78,.28,1.05,1.04,1.02,1.34-.04,2.68-.03,4.02,0,.69,.01,.93-.28,.93-.95-.01-5.14-.02-10.27,0-15.41,0-.75-.3-.97-1.01-.96-1.31,.04-2.62,.05-3.92,0-.83-.04-1.08,.27-1.06,1.08,.04,2.52,.02,5.04,.02,7.56m-14.43,2.61c0,1.71,.01,3.42,0,5.13,0,.6,.19,.94,.85,.93,1.43-.02,2.86-.02,4.29,0,.59,0,.84-.24,.84-.84-.01-3.42-.01-6.84,0-10.26,0-.6-.25-.84-.84-.83-1.37,.02-2.74,.03-4.1,0-.76-.02-1.06,.25-1.04,1.03,.04,1.62,.01,3.23,.01,4.85M4.84,33.31c-.13,.11-.31,.23-.46,.38-.62,.61-1.24,1.23-1.85,1.85-.85,.86-.86,1.06-.02,1.9,1.86,1.88,3.74,3.75,5.61,5.61,.64,.64,1.29,1.27,1.92,1.9,.49,.49,.93,.5,1.42-.03,.7-.75,1.44-1.47,2.17-2.18,.36-.35,.37-.57-.09-.84-1.27-.73-2.43-1.77-3.79-2.17-1.38-.41-1.93-1.01-2.31-2.38-.36-1.3-1.36-2.42-2.09-3.62-.11-.18-.19-.4-.51-.42m12.54,6.22c0-.27-.17-.47-.34-.64-2.87-2.88-5.75-5.76-8.63-8.63-.45-.45-.92-.51-1.38-.03-.44,.46-1.21,.78-.64,1.67,.73,1.15,1.4,2.35,2.11,3.51,.36,.59,.62,1.31,1.49,1.38,.24,.02,.45,.28,.49,.52,.1,.74,.67,1,1.2,1.31,1.17,.7,2.35,1.4,3.52,2.1,.71,.43,2.15-.36,2.18-1.19M34.25,8.78h0c0-.56,0-1.12,0-1.68,0-.3-.04-.58-.45-.56-.9,.04-1.8,.08-2.7,.11-.3,.01-.52,.14-.67,.42-.64,1.2-1.61,1.95-2.96,2.18-.61,.1-.59,.39-.35,.85,.87,1.66,2.92,2.82,4.79,2.68,1.39-.11,2.2-.9,2.32-2.32,.05-.56,0-1.12,0-1.68m-1.77-7c-1.01,.09-2.28-.23-3.49,.18-1.98,.67-3.06,2.96-2.46,5.05,.13,.44,.4,.52,.78,.41,.81-.23,1.34-.78,1.62-1.55,.31-.85,.9-1.19,1.8-1.14,.74,.04,1.49,.03,2.24-.01,1.38-.08,2.4-.8,3.08-1.97,.41-.71,.27-.94-.55-.96-.93-.02-1.87,0-3.02,0m-15.12,29.62c.6-.06,1.09-.41,1.54-.86,1.5-1.52,1.43-1.16,.02-2.5-.49-.46-.79-1.61-1.75-1.07-.67,.37-1.2,1.04-1.6,1.78-.6,1.1,.36,2.58,1.79,2.66m28.44-8.16c.34,0,.69,.03,1.03,0,1.25-.13,1.96-1.43,1.43-2.56-.44-.95-2.05-1.49-3.5-1.08-.92,.26-.37,1.1-.52,1.67-.04,.15,0,.31,0,.47q0,1.53,1.56,1.51m-13.01-7.48c-.13-.3,.26-1-.53-1.06-.8-.05-1.6-.1-2.39-.26-.39-.08-.52,.11-.44,.46,.21,.86,.51,1.65,1.35,2.12,1.38,.78,2.01,.42,2.01-1.27M15.55,34.54c.38-.18,.72-.47,.87-.89,.14-.39-.21-.53-.5-.66-.81-.37-1.46-.94-1.92-1.71-.22-.36-.48-.61-.88-.22-.33,.32-.77,.6-.2,1.12,.71,.65,1.37,1.36,2.05,2.04,.15,.15,.3,.32,.58,.31"/><path class="d" d="M65.76,47.38c0-7.17,0-14.33,0-21.5,0-1.28-.04-1.32-1.31-1.32-1.25,0-2.49,.02-3.74,0-.68-.01-.96,.27-.94,.95,.02,.68,.02,1.37-.03,2.05-.04,.54-.29,.98-.92,.97-.63,0-.89-.45-.91-.98-.04-1.28-.04-2.55,0-3.83,.02-.71,.44-1.06,1.16-1.05,.59,.01,1.19-.03,1.77,0,.74,.05,.98-.27,.98-.99-.02-2.71,0-5.42,0-8.13,0-3.68,0-7.35,0-11.03,0-.34,0-.69,.05-1.02,.07-.53,.39-.86,.93-.87,.53,0,.89,.37,.85,.81-.13,1.31,.77,1.77,1.68,2.28,1.9,1.06,3.79,2.16,5.68,3.24,1.27,.72,1.32,1.52,.07,2.27-2.08,1.25-4.17,2.49-6.29,3.68-.76,.43-1.13,.91-1.1,1.83,.07,2.3,.05,4.61,0,6.92-.01,.78,.27,1.07,1.04,1.01,.59-.05,1.18,0,1.78,0,.72,0,1.09,.37,1.13,1.08,.01,.28,.01,.56,.01,.84,0,15.14,0,30.28,0,45.43,0,.31,0,.62-.01,.93-.04,.61-.34,.99-1,.99-2.55,0-5.11,0-7.66,0-.64,0-.98-.33-1.06-.94-.03-.25-.04-.5-.04-.75,0-10.25,0-20.5,0-30.75,0-.37,.03-.75,.12-1.11,.11-.43,.42-.7,.89-.68,.46,.03,.75,.32,.82,.76,.06,.4,.07,.81,.07,1.21,0,9.69,0,19.38,0,29.07q0,1.41,1.38,1.42c1.03,0,2.06,0,3.08,0q1.51,0,1.52-1.48c0-7.1,0-14.21,0-21.31m-2.03-39.28c0,.84,0,1.68,0,2.52,0,.51,.2,.7,.69,.41,1.44-.86,2.89-1.71,4.33-2.57,.35-.21,.45-.42,.02-.66-1.46-.83-2.92-1.65-4.37-2.5-.49-.29-.68-.16-.67,.38,0,.81,0,1.62,0,2.43"/><path class="d" d="M43.46,53.4c0-5.58,0-11.15,0-16.73,0-1.59,.23-1.82,1.85-1.82,2.09,0,4.17-.01,6.26,0,1.33,.01,1.66,.34,1.66,1.67,0,11.28,0,22.55,0,33.83,0,1.37-.22,1.58-1.57,1.58-2.24,0-4.48,0-6.73,0-1.34,0-1.47-.14-1.47-1.53,0-5.67,0-11.34,0-17.01m7.87,.1c0-5.23-.01-10.46,.01-15.69,0-.81-.25-1.12-1.07-1.08-1.18,.05-2.37,.01-3.55,.01-1.35,0-1.36,0-1.36,1.34,0,7.75,0,15.5,0,23.25,0,2.58,.02,5.17-.01,7.75-.01,.81,.28,1.11,1.09,1.08,1.21-.05,2.43,0,3.64-.01,1.23,0,1.25-.02,1.25-1.25,0-5.14,0-10.27,0-15.41"/><path class="d" d="M.06,66c0-1.56,.02-3.12-.01-4.67-.02-.87,.33-1.28,1.2-1.27,2.4,0,4.8,0,7.2,0,.85,0,1.26,.4,1.26,1.25,0,3.15,0,6.29,0,9.44,0,.8-.34,1.2-1.19,1.19-2.46-.02-4.92-.02-7.38,0-.74,0-1.08-.33-1.08-1.07,.01-1.62,0-3.24,0-4.86m7.85,.07c0-1.12-.02-2.24,0-3.36,.02-.65-.25-.89-.89-.87-1.43,.03-2.87,.02-4.3,0-.63,0-.92,.22-.91,.87,.01,2.21,.01,4.42,0,6.63,0,.6,.25,.84,.84,.83,1.46-.02,2.93-.02,4.39,0,.65,0,.87-.3,.86-.92-.02-1.06,0-2.12,0-3.18"/><path class="d" d="M17.88,10.82c-.39,.09-.59,.43-.84,.68-3.4,3.34-6.8,6.68-10.2,10.02-.13,.13-.27,.26-.41,.38-.44,.38-.89,.46-1.33,.02-.43-.41-.31-.85,.02-1.25,.26-.31,.55-.6,.83-.88,3.19-3.15,6.39-6.3,9.58-9.45,.23-.23,.45-.48,.67-.72-.32-.32-.67-.21-.95-.33-.44-.19-.73-.5-.67-1,.06-.51,.4-.77,.89-.78,1.09-.02,2.18-.02,3.27,0,.64,0,.99,.37,1.01,.99,.02,1.03,.02,2.06,0,3.08-.01,.59-.29,1.07-.93,1.06-.69,0-.82-.54-.84-1.12,0-.24,.09-.5-.12-.72"/><path class="d" d="M28.65,42.71c-.71-.08-1.1-.47-1.07-1.17,.02-.65,.4-1.06,1.07-1.06,.7,0,1.11,.42,1.13,1.11,.01,.73-.47,1.03-1.12,1.12"/><path class="d" d="M3.88,24.27c-.14,.67-.56,1.04-1.24,.98-.65-.06-1.01-.51-.97-1.15,.05-.68,.46-1.11,1.17-1.05,.69,.06,1.02,.51,1.04,1.21"/><path class="d" d="M59.98,33.16c-.09,.72-.45,1.14-1.15,1.14-.71,0-1.08-.47-1.07-1.14,0-.65,.41-1.05,1.06-1.06,.69,0,1.07,.41,1.16,1.06"/></g></g></g></svg>