<?xml version="1.0" encoding="UTF-8"?><svg xmlns="http://www.w3.org/2000/svg" viewBox="0 0 1186.71 440.33"><defs><style>.d{fill:#fff;}</style></defs><g id="a"/><g id="b"><g id="c"><g><path class="d" d="M492.22,269.01c18.95-7.29,28.57-22.16,38.99-35.91,6.48-8.55,11.01-18.66,17.93-26.77,3.88-4.55,10.55-8.01,16.51-9.17,7.36-1.43,12.64,2.93,13.22,11.31,.57,8.21,.71,16.55,2.34,24.56,.9,4.46,3.86,11.25,6.94,11.88,4.73,.97,12.05-.87,15.3-4.31,12.52-13.27,25.36-26.39,32.02-44.26,8.33-22.35,27.75-36.51,42.43-54.16,5.39-6.48,11.3-12.99,18.24-17.58,6.08-4.02,14.37-7.26,21.23-1.43,7.49,6.36,6.5,15.22,3.89,23.73-.73,2.39-1.83,4.88-3.42,6.76-14.9,17.56-28.95,36-45.22,52.21-19,18.93-22.21,35.38-7.43,57.81,3.31,5.02,7.04,9.74,10.42,14.72,4.11,6.06,8.62,7.21,13.8,1.42,10.12-11.32,20.01-22.86,30.33-33.99,5.54-5.98,11.81-11.29,17.72-16.93,6.36-6.07,12.42-12.48,19.07-18.2,19.41-16.68,38.5-33.81,58.86-49.26,8.77-6.66,20.16-10.11,30.76-13.94,3-1.09,9.21,.5,10.67,2.87,1.91,3.1,1.54,8.53,.3,12.35-1.06,3.27-4.6,5.84-7.28,8.48-16.57,16.33-33.4,32.4-49.74,48.95-11.07,11.21-21.55,23-32.14,34.67-2.17,2.39-3.67,5.38-5.48,8.1,.59,.6,1.18,1.2,1.77,1.79,2.84-1.62,6-2.86,8.48-4.92,15.81-13.13,31.33-26.61,47.26-39.58,5.3-4.32,11.12-8.62,17.44-10.9,8.86-3.2,14.09,.75,15.08,10.17,.66,6.28,.06,12.68,.46,19,.3,4.7,.56,9.63,2.15,13.98,2.98,8.2,12.61,10.88,18.51,4.81,17.85-18.36,35.63-36.83,52.41-56.15,4.23-4.87,5.32-12.98,6.52-19.83,1.21-6.96,13.73-19.63,24.91-20.83,6.2-.67,14.28,.92,19.05,4.64,29.4,22.91,34.77,43.64,22.47,79.23-2.93,8.49-4.98,17.28-7.43,25.93,.94,.73,1.88,1.46,2.82,2.19,4.65-2.74,9.87-4.83,13.83-8.35,10.37-9.22,19.91-19.39,30.31-28.57,12.07-10.66,25.08-20.26,36.99-31.08,11.2-10.16,21.22-21.61,32.33-31.88,4.51-4.16,10.15-7.9,15.94-9.68,9.48-2.92,12.03,.19,9.82,9.75-.26,1.14-.24,2.34-.5,5.13,5.01-1.64,9.09-2.91,13.13-4.3,18.29-6.29,35.02,2.99,39.06,21.9,3.71,17.34,.13,33.68-9.86,47.84-10.15,14.38-21.3,28.19-33.17,41.19-13.84,15.16-32.23,22.23-52.45,23.47-17.35,1.07-34.21-19.29-31.34-36.81,.92-5.63,2.45-11.15,3.32-16.79,.26-1.66-.32-4.68-1.28-5.04-1.7-.64-4.39-.33-5.93,.69-3.69,2.43-7.65,4.97-10.26,8.41-15.84,20.82-39.04,31.92-60.04,45.9-3.87,2.58-8.52,4.41-13.07,5.49-13.57,3.2-21.21-5.2-16.82-18.36,4.01-12.01,9.63-23.62,12.35-35.89,2.62-11.82,3.39-24.3,3.02-36.42-.14-4.58-4.9-10.69-9.2-12.86-2.76-1.39-9.44,2.16-12.74,5.24-11.77,10.98-22.74,22.81-34.21,34.11-12.81,12.62-25.37,25.57-38.99,37.27-5.74,4.94-13.6,8.38-21.05,10.16-15.45,3.7-29.27-6.49-32.84-22.71-1.07-4.88-2.14-9.77-3.8-17.39-11,9.41-20.24,17.62-29.81,25.43-11.98,9.76-23.74,19.9-36.51,28.52-9.86,6.66-21.73,5.18-27.22-1.1-6.33-7.25-6.08-22.2,.48-31.11,1.12-1.52,2.14-3.11,3.06-4.75,.23-.41-.12-1.14-.47-3.5-9.23,12.91-18.13,24.51-25.79,36.88-1.43,2.31,1.81,7.85,3.45,11.66,4.83,11.24,11.55,21.95,14.55,33.63,4.56,17.79-.13,34.74-11.78,49.08-18.2,22.38-39.36,40.57-69.79,42.69-6.86,.48-14.25-1.61-20.86-4-6.77-2.44-8.78-8.68-9.98-15.85-4.77-28.45,9.01-50.22,24.71-71.32,5.85-7.87,12.61-15.06,18.87-22.62,3.87-4.67,4.36-9.03,.43-14.49-12.37-17.15-25.75-33.83-30.07-55.72-11.13,6.77-21.42,13.29-31.97,19.38-14.5,8.37-31.94,2.1-38.29-13.44-1.88-4.6-3.82-9.16-6.58-15.76-10.27,11.85-19.22,22.31-28.33,32.64-7.91,8.96-15.07,18.7-27.93,21.61-15.81,3.57-26.94-2.88-30.11-18.93-1.84-9.3-2.55-18.81-3.91-28.2-.57-3.98-1.48-7.91-2.24-11.86-.87-.44-1.75-.87-2.62-1.31-6.05,7.39-13.47,14.05-17.85,22.32-8.27,15.6-19.3,26.21-36.24,32.67-19.67,7.5-39.22,13.92-60.34,15.14-16.19,.93-29.12-9.48-29.78-25.58-.4-9.75,.4-19.66,1.77-29.34,3.35-23.72,7.33-47.34,11.09-71,.8-5.01,1.93-9.97,2.59-14.99,1.46-11.04,4.76-21.55-1.36-33.12-2.96-5.59-.2-14.97,1.64-22.2,8.01-31.53,13.19-63.83,27.36-93.7,5.19-10.95,12.74-16.97,23.59-19.88,8.52-2.29,13.46,1.1,14.88,9.9,.54,3.37,.74,7.01,.08,10.33-8.23,41.58-16.64,83.12-25,124.68-6.76,33.55-13.53,67.1-20.28,100.65-.19,.93-.35,1.87-.46,2.82-2.11,18.62,2.56,23.71,20.83,20.27,14.28-2.69,28.59-6.17,42.15-11.26,6.91-2.59,13.17-8.71,18.05-14.61,19.54-23.63,37.92-48.24,57.91-71.47,5.28-6.13,14.42-10.04,22.53-12.29,6.21-1.72,8.42,4.12,6.56,10.15-3.44,11.2-7.11,22.33-10.47,33.55-5.58,18.65-8.98,37.61-6.84,57.19,.26,2.39,.89,4.74,1.61,8.4Zm143.2,149.96c13.04,.06,22.68-7.23,31.84-15.1,19.33-16.62,23.97-41.56,12.06-61.31-3.97-6.58-7.94-7.9-12.98-1.5-4.48,5.7-9.43,11.17-13.03,17.4-9.12,15.75-18.23,31.57-26.06,47.98-3.79,7.95,.14,12.51,8.18,12.53Zm474.59-139.86c1.8-.55,6.34-1.17,10.1-3.22,14.69-8.05,23.86-21.26,31.28-35.7,2.1-4.09,3.16-9.09,3.34-13.72,.31-7.57-1.7-14.46-9.97-17.46-8.39-3.04-14.59-.68-19.32,6.98-2.6,4.21-5.41,9.71-9.45,11.35-17.24,7.01-18.98,22.54-21.57,37.31-1.66,9.43,3.73,14.47,15.59,14.46Z"/><path class="d" d="M12.39,316.75c10.41-16.74,21.42-27.76,39.7-31.68,18.37-3.94,31.41-18.06,45.54-29.81,18.96-15.77,30.16-37.11,43.98-56.74,10.4-14.76,16.13-29.52,14.99-47.57-.94-14.86-6.69-27.06-15.28-38.92-17.18-23.71-41.88-36.79-66.92-49.63-.76-.39-1.82-.2-4.12-.4-3.64,14.17-7.93,28.29-10.87,42.7-10.06,49.34-19.75,98.75-29.34,148.17-3.14,16.19-11.91,28.68-24.99,42.33-1.83-6.59-4.38-10.97-3.96-15.04,4.14-40.57,8.64-81.1,13.29-121.62,2.76-24.07,5.34-48.2,9.23-72.1,2.28-14,10.9-24.53,24.02-30.83,1.14-.55,2.21-1.21,4.88-2.68-4.05-2.17-5.99-3.44-8.11-4.3-11.89-4.82-23.79-9.58-35.73-14.27C2.45,31.9,.32,27.65,1.05,20.9,1.58,15.98,.46,10.89,0,4.76c12.48,0,25.11-1.49,37.22,.38,14.82,2.29,29.47,6.62,43.69,11.54,10.04,3.48,19.86,8.48,28.68,14.43,18.25,12.32,37.22,24.16,53.27,39.03,29.97,27.76,32.47,62.55,19.94,99.64-9.64,28.53-26.01,53.57-42.66,78.11-11.96,17.63-26.02,34.32-41.5,48.93-19.7,18.59-45.19,25.78-71.98,26.83-4.49,.18-9.15-4.3-14.25-6.89Z"/><path class="d" d="M229.57,111.87c5.05-16.89,10.64-33,14.53-49.5,2.65-11.23,3.7-22.99,4.07-34.56,.42-13.15,3.63-20.11,12.3-21.53,11.42-1.87,19.81,4.15,24.37,16.04,3.86,10.08,3.74,19.2-.97,29.12-7.44,15.67-13.14,32.18-20.72,47.78-7.15,14.7-15.68,17.56-33.58,12.64Z"/></g></g></g></svg>