<?xml version="1.0" encoding="UTF-8"?><svg xmlns="http://www.w3.org/2000/svg" viewBox="0 0 72 60.74"><defs><style>.d{fill:#fff;}</style></defs><g id="a"/><g id="b"><g id="c"><g><path class="d" d="M39.93,56.21c1.5-1.76,2.97-3.48,4.44-5.19,2.11-2.46,4.21-4.93,6.33-7.38,.71-.82,1.34-.93,1.92-.43,.58,.5,.56,1.22-.09,1.99-3.66,4.3-7.38,8.54-10.98,12.89-2.88,3.48-8.14,3.73-11.46-.38-3.78-4.68-7.78-9.18-11.68-13.76-4.29-5.03-8.59-10.04-12.86-15.09-2.09-2.47-1.9-5.63,.32-7.95,3.37-3.51,6.72-7.03,10.06-10.57,1.5-1.58,3.32-2.42,5.48-2.42,6.8-.02,13.6,0,20.4,0,.25,0,.5,.01,.74,.05,.7,.12,1.14,.53,1.13,1.27-.02,.72-.53,1.07-1.17,1.1-1.06,.06-2.12,.03-3.18,.04-.24,0-.54-.08-.69,.17-.16,.26,.08,.47,.21,.66,2.37,3.51,4.76,7.02,7.12,10.54,.45,.67,.73,.71,1.15-.01,1.91-3.29,3.83-6.57,5.79-9.83,.43-.71,.19-.98-.47-1.22-.94-.33-1.9-.32-2.87-.32-.75,0-1.5,.02-2.24-.06-.66-.07-1.08-.48-1.07-1.2,0-.67,.42-1.07,1.04-1.12,3.49-.33,6.72-.09,9.31,2.85,3.03,3.44,6.27,6.69,9.44,9.99,2.31,2.41,2.5,5.51,.33,8.08-3.37,4.01-6.79,7.98-10.19,11.96-.59,.69-1.36,.85-1.86,.35-.59-.58-.53-1.23-.01-1.84,1.99-2.36,3.99-4.71,5.99-7.06,1.43-1.69,2.87-3.37,4.29-5.07,.22-.27,.62-.57,.4-.97-.19-.34-.63-.19-.96-.19-5.11,0-10.23,.01-15.34-.02-.84,0-1.21,.29-1.42,1.1-1.83,7.03-3.69,14.04-5.54,21.06-.61,2.32-1.22,4.64-1.83,6.96-.07,.29-.25,.58,0,1m-3.9-30.1c-2.65,0-5.3,0-7.95,0-1.07,0-1.16,.17-.87,1.24,1.2,4.48,2.39,8.97,3.58,13.45,1.48,5.6,2.97,11.2,4.44,16.8,.11,.42,.2,.77,.75,.78,.59,.02,.7-.37,.81-.82,1.02-3.88,2.07-7.76,3.1-11.64,1.65-6.23,3.3-12.46,4.95-18.7,.24-.91,.11-1.11-.85-1.11-2.65,0-5.3,0-7.95,0m-3.93,30.13c.18-.43,.08-.66,.01-.9-.63-2.38-1.25-4.76-1.88-7.14-1.84-6.99-3.7-13.97-5.51-20.97-.22-.85-.6-1.15-1.48-1.14-5.08,.04-10.16,.01-15.25,.03-.35,0-.84-.18-1.02,.22-.17,.37,.21,.69,.44,.96,2.52,2.97,5.04,5.94,7.57,8.9,4.23,4.95,8.45,9.91,12.68,14.86,1.45,1.7,2.91,3.4,4.43,5.17m3.91-32.6c2.43,0,4.86-.01,7.29,0,.74,0,.93-.21,.49-.85-2.42-3.55-4.83-7.11-7.24-10.67-.4-.59-.7-.58-1.09,0-2.4,3.56-4.82,7.12-7.24,10.67-.45,.65-.23,.85,.5,.85,2.43-.02,4.86,0,7.29,0m-9.08-13.26c-1.81,0-3.61,0-5.42,0-.69,0-1.36,.12-2.02,.34-.66,.22-.79,.53-.42,1.17,1.95,3.26,3.86,6.55,5.79,9.82,.5,.84,.6,.84,1.18,0,2.38-3.5,4.75-7.02,7.13-10.52,.42-.62,.22-.81-.45-.81-1.93,.01-3.86,0-5.8,0m-12.04,13.26c2.43,0,4.86-.01,7.3,0,.75,0,.87-.21,.49-.87-1.8-3.03-3.58-6.07-5.35-9.11-.3-.51-.55-.68-1.04-.17-2.94,3.1-5.89,6.18-8.84,9.27-.18,.19-.49,.41-.34,.7,.15,.28,.51,.15,.77,.16,2.34,0,4.68,0,7.01,0m42.12,0c2.34,0,4.68,0,7.01,0,.3,0,.72,.15,.87-.14,.18-.36-.22-.61-.44-.84-2.86-3-5.74-5.99-8.57-9.01-.6-.64-.88-.52-1.28,.17-1.71,2.97-3.47,5.91-5.2,8.87-.5,.86-.45,.95,.6,.95,2.34,0,4.68,0,7.01,0"/><path class="d" d="M69.03,14.5c-.59,0-1.18,0-1.77,0-.67-.01-1.18-.3-1.27-.99-.1-.72,.32-1.27,.99-1.37,1.35-.2,2.73-.22,4.08,.02,.71,.13,1.03,.65,.92,1.39-.1,.68-.55,.94-1.18,.94-.59,0-1.18,0-1.77,0"/><path class="d" d="M14.5,3.08c0,.56,.01,1.12,0,1.68-.02,.71-.35,1.21-1.09,1.28-.69,.06-1.17-.37-1.26-1-.2-1.35-.2-2.73,0-4.08,.09-.64,.58-1.03,1.29-.94,.69,.09,1.04,.53,1.07,1.2,.02,.62,0,1.24,0,1.86h0Z"/><path class="d" d="M57.5,2.96c0-.59-.02-1.18,0-1.77,.04-.67,.4-1.11,1.09-1.18,.76-.08,1.21,.38,1.3,1.06,.15,1.26,.14,2.54,0,3.81-.08,.71-.54,1.22-1.33,1.15-.73-.07-1.05-.59-1.07-1.3-.01-.59,0-1.18,0-1.77h0Z"/><path class="d" d="M2.87,14.49c-.59,0-1.18,.02-1.77,0-.6-.02-1-.31-1.08-.94-.09-.63,.12-1.17,.75-1.32,1.46-.34,2.96-.33,4.42-.02,.58,.12,.92,.66,.81,1.3-.11,.62-.53,.97-1.17,.99-.65,.02-1.3,0-1.96,0"/><path class="d" d="M4.64,3.56c.4-.02,.72,.15,1,.42,.81,.81,1.63,1.62,2.43,2.44,.5,.51,.63,1.1,.14,1.66-.52,.6-1.19,.57-1.74,.08-.92-.83-1.78-1.72-2.64-2.62-.38-.39-.41-.89-.17-1.39,.2-.4,.54-.58,.98-.59"/><path class="d" d="M64.75,8.5c-.52-.01-.89-.21-1.11-.63-.22-.43-.21-.88,.11-1.22,.92-.97,1.85-1.92,2.83-2.83,.43-.4,.99-.39,1.46-.03,.48,.36,.65,.96,.32,1.41-.89,1.23-1.96,2.31-3.21,3.19-.12,.08-.29,.08-.4,.11"/></g></g></g></svg>